<?xml version="1.0" standalone="no"?><!DOCTYPE svg PUBLIC "-//W3C//DTD SVG 1.1//EN" "http://www.w3.org/Graphics/SVG/1.1/DTD/svg11.dtd"><svg t="1689603770826" class="icon" viewBox="0 0 1024 1024" version="1.1" xmlns="http://www.w3.org/2000/svg" p-id="20847" xmlns:xlink="http://www.w3.org/1999/xlink" width="200" height="200"><path d="M235.19 469.76c-10.16 0-18.43-8.26-18.43-18.44v-369c0-10.19 8.27-18.44 18.43-18.44 10.22 0 18.46 8.26 18.46 18.44v368.99c0 10.2-8.24 18.45-18.46 18.45zM788.67 469.76c-10.16 0-18.43-8.26-18.43-18.44v-369c0-10.19 8.27-18.44 18.43-18.44 10.22 0 18.46 8.26 18.46 18.44v368.99c0 10.2-8.24 18.45-18.46 18.45z" fill="#CCD1D9" p-id="20848"></path><path d="M290.54 617.36h-55.35c-10.16 0-18.43-8.26-18.43-18.44v-184.5c0-10.19 8.27-18.44 18.43-18.44h55.35c10.22 0 18.46 8.26 18.46 18.44v184.5c0 10.19-8.24 18.44-18.46 18.44zM788.67 617.36h-55.35c-10.16 0-18.43-8.26-18.43-18.44v-184.5c0-10.19 8.27-18.44 18.43-18.44h55.35c10.22 0 18.46 8.26 18.46 18.44v184.5c0 10.19-8.24 18.44-18.46 18.44z" fill="#E6E9ED" p-id="20849"></path><path d="M272.11 451.32h479.68v147.6H272.11z" fill="#DA4453" p-id="20850"></path><path d="M659.55 395.97h-295.2c-50.86 0-92.24-41.38-92.24-92.25V194.45c0-50.88 41.38-92.25 92.24-92.25h295.2c50.86 0 92.24 41.38 92.24 92.25v109.26c-0.01 50.88-41.38 92.26-92.24 92.26zM770.24 801.85H253.65c-30.51 0-55.35-24.82-55.35-55.35V635.8c0-30.51 24.84-55.35 55.35-55.35h516.59c30.51 0 55.35 24.84 55.35 55.35v110.7c0 30.53-24.84 55.35-55.35 55.35z" fill="#ED5564" p-id="20851"></path><path d="M364.35 525.11h295.2v239.85h-295.2z" fill="#FFCE54" p-id="20852"></path><path d="M309 691.16h-36.89c-10.19 0-18.46-8.26-18.46-18.44 0-10.19 8.27-18.44 18.46-18.44H309c10.19 0 18.46 8.26 18.46 18.44 0 10.18-8.27 18.44-18.46 18.44zM751.78 691.16h-36.89c-10.19 0-18.46-8.26-18.46-18.44 0-10.19 8.27-18.44 18.46-18.44h36.89c10.19 0 18.46 8.26 18.46 18.44 0 10.18-8.27 18.44-18.46 18.44z" fill="#F5F7FA" p-id="20853"></path><path d="M751.78 301.19H272.11v153.36h0.3c0.65 3.65 2.38 7.08 5.11 9.81l73.78 73.81c3.46 3.46 8.16 5.4 13.05 5.4h295.2c4.89 0 9.59-1.95 13.05-5.4l73.78-73.81c2.73-2.73 4.46-6.16 5.11-9.81h0.3V301.19z" fill="#ED5564" p-id="20854"></path><path d="M401.24 543.57h36.92v221.39h-36.92zM493.5 543.57h36.89v221.39H493.5zM585.74 543.57h36.89v221.39h-36.89z" fill="#F6BB42" p-id="20855"></path><path d="M696.44 285.27H327.46c-10.19 0-18.46 8.26-18.46 18.44v110.7c0 10.19 8.27 18.46 18.46 18.46h368.98c10.19 0 18.46-8.27 18.46-18.46v-110.7c-0.01-10.18-8.27-18.44-18.46-18.44z" fill="#4FC2E9" p-id="20856"></path><path d="M327.46 801.85h-110.7c-10.19 0-18.46 8.27-18.46 18.46v110.7c0 10.19 8.27 18.44 18.46 18.44h110.7c10.19 0 18.43-8.26 18.43-18.44v-110.7c0-10.19-8.25-18.46-18.43-18.46zM807.13 801.85h-110.7c-10.19 0-18.46 8.27-18.46 18.46v110.7c0 10.19 8.27 18.44 18.46 18.44h110.7c10.19 0 18.46-8.26 18.46-18.44v-110.7c0-10.19-8.27-18.46-18.46-18.46z" fill="#434A54" p-id="20857"></path><path d="M622.63 229.92H401.24c-10.16 0-18.43-8.26-18.43-18.44 0-10.19 8.27-18.46 18.43-18.46h221.39c10.22 0 18.46 8.27 18.46 18.46 0 10.19-8.24 18.44-18.46 18.44z" fill="#DA4453" p-id="20858"></path><path d="M557.77 285.27l-147.59 147.6h92.83l147.59-147.6z" fill="#F5F7FA" opacity=".2" p-id="20859"></path><path d="M844.02 764.96H179.84c-10.16 0-18.43 8.26-18.43 18.44v36.9c0 10.19 8.27 18.44 18.43 18.44h664.18c10.22 0 18.46-8.26 18.46-18.44v-36.9c0-10.18-8.24-18.44-18.46-18.44z" fill="#E6E9ED" p-id="20860"></path></svg>