<?xml version="1.0" standalone="no"?><!DOCTYPE svg PUBLIC "-//W3C//DTD SVG 1.1//EN" "http://www.w3.org/Graphics/SVG/1.1/DTD/svg11.dtd"><svg t="1689603653607" class="icon" viewBox="0 0 1024 1024" version="1.1" xmlns="http://www.w3.org/2000/svg" p-id="14355" xmlns:xlink="http://www.w3.org/1999/xlink" width="200" height="200"><path d="M512 490.666667V469.333333h42.666667v25.6c12.8 4.266667 25.6 8.533333 38.4 17.066667l17.066666-17.066667 29.866667 29.866667-17.066667 17.066667c8.533333 12.8 12.8 25.6 17.066667 38.4h25.6v42.666666H640c-4.266667 12.8-8.533333 25.6-17.066667 38.4l17.066667 17.066667-29.866667 29.866667-17.066666-17.066667c-12.8 8.533333-25.6 12.8-38.4 17.066667v17.066666h-42.666667v-25.6c-12.8-4.266667-25.6-8.533333-38.4-17.066666l-17.066667 17.066666-29.866666-25.6 17.066666-17.066666c-8.533333-12.8-12.8-25.6-17.066666-38.4h-21.333334v-42.666667h25.6c4.266667-12.8 8.533333-25.6 17.066667-38.4l-21.333333-17.066667 29.866666-29.866666 17.066667 17.066666c12.8-8.533333 25.6-12.8 38.4-17.066666z m328.533333 320v-42.666667h85.333334v-217.6l-234.666667-234.666667-21.333333 21.333334-29.866667-29.866667L691.2 256l320 320h-42.666667V810.666667h-128zM217.6 810.666667h-128v-234.666667H42.666667L362.666667 256l51.2 51.2-29.866667 29.866667-21.333333-21.333334L128 550.4V768h85.333333v42.666667z m597.333333-234.666667V810.666667h-554.666666v-234.666667H213.333333L533.333333 256l320 320h-38.4z m-512-25.6V768h469.333334v-217.6l-234.666667-234.666667-234.666667 234.666667z m230.4 110.933333c34.133333 0 64-29.866667 64-64s-29.866667-64-64-64-64 29.866667-64 64 29.866667 64 64 64z m0-42.666666c-12.8 0-21.333333-8.533333-21.333333-21.333334s8.533333-21.333333 21.333333-21.333333 21.333333 8.533333 21.333334 21.333333-8.533333 21.333333-21.333334 21.333334z" fill="#ffffff" p-id="14356"></path></svg>