<?xml version="1.0" standalone="no"?>
<!DOCTYPE svg PUBLIC "-//W3C//DTD SVG 1.1//EN" "http://www.w3.org/Graphics/SVG/1.1/DTD/svg11.dtd">
<svg t="1689345097980" class="icon" viewBox="0 0 1024 1024" version="1.1" xmlns="http://www.w3.org/2000/svg" p-id="21784" xmlns:xlink="http://www.w3.org/1999/xlink" width="200" height="200">
    <path d="M711.8 737.8c-3.3 0-6.5-1.1-9-3.2l-67.4-55.4c-24.1-16.9-38.4-46.8-38.4-81.5 0-64.8 49.9-130.3 111.4-146 30.8-7.8 60.1-2.5 82.5 14.9 23.1 18 35.9 46.3 35.9 79.8 0 33.2-13.3 68.4-36.5 96.4l-67.1 89.3c-2.3 3.1-5.8 5.1-9.7 5.6-0.6 0.1-1.2 0.1-1.7 0.1z m23.6-261.1c-6.5 0-13.2 0.9-20.1 2.6-49.6 12.6-90 65.8-90 118.4 0 25.6 9.7 46.5 27.2 58.9l56.8 46.6 58.5-77.9c19.5-23.6 30.4-52.2 30.4-78.9 0-24.5-8.8-44.9-24.9-57.3-10.5-8.2-23.6-12.4-37.9-12.4z" fill="#12D2AC" p-id="21785"></path>
    <path d="M703.3 625.2c-9.5 0-18.4-2.9-25.7-8.5-10.5-8.1-16.5-21.3-16.5-36 0-27.7 20.7-54.8 47.1-61.5 13.7-3.5 27.4-0.9 37.6 7 10.5 8.1 16.5 21.2 16.5 36 0 27.8-20.7 54.8-47.1 61.5-3.9 1-7.9 1.5-11.9 1.5z m17-79.1c-1.6 0-3.3 0.2-5.1 0.7-13.7 3.5-25.7 19.4-25.7 34 0 6 2 10.8 5.5 13.5 3.4 2.6 7.9 3.3 13.1 1.9 13.9-3.5 25.7-19.1 25.7-34 0-6-1.9-10.8-5.5-13.5-2.1-1.8-4.8-2.6-8-2.6zM719 407c-4.3 0-8.6-1-12.6-3.2L347.2 209.2c-12.8-7-17.6-23-10.7-35.9 6.9-12.8 23-17.6 35.9-10.7l359.3 194.6c12.8 7 17.6 23 10.7 35.9-4.9 8.9-14 13.9-23.4 13.9z" fill="#12D2AC" p-id="21786"></path>
    <path d="M503.5 954.8c-5.9 0-11.9-1.5-17.2-4.5L112 740.7c-11.1-6.2-18-18-18-30.8V301.3c0-17.7 9.5-34.3 24.8-43.3s34.4-9.2 49.9-0.5l352 197.1c11.1 6.2 18 18 18 30.8v434.2c0 12.5-6.6 24.1-17.4 30.4-5.5 3.2-11.7 4.8-17.8 4.8zM164.4 689.3l303.8 170.1V506L164.4 335.9v353.4z" fill="#307AF2" p-id="21787"></path>
    <path d="M503.5 954.8c-12.4 0-24.4-6.5-30.8-18.1-9.5-17-3.3-38.5 13.7-47.9l378.4-203.2c17-9.5 38.5-3.3 47.9 13.7 9.5 17 3.3 38.5-13.7 47.9L520.6 950.3c-5.4 3.1-11.3 4.5-17.1 4.5z" fill="#307AF2" p-id="21788"></path>
    <path d="M503.5 520.6c-12.6 0-24.7-6.7-31.1-18.6-9.2-17.1-2.8-38.5 14.4-47.7l367-197.1c14.9-8.3 34.1-8.2 49.4 0.8 15.3 9 24.8 25.6 24.8 43.3v407.9c0 19.5-15.8 35.3-35.3 35.3-19.5 0-35.3-15.8-35.3-35.3v-374L520.1 516.4c-5.3 2.9-11 4.2-16.6 4.2zM887.6 319l-0.6 0.3 0.6-0.3z" fill="#307AF2" p-id="21789"></path>
    <path d="M892.6 326c-5.8 0-11.8-1.4-17.2-4.5L518.1 120.8 150.9 319.1c-17.1 9.3-38.5 2.8-47.8-14.3-9.2-17.1-2.9-38.5 14.3-47.8L488 57c19.5-9.8 41.7-9.7 60.2-0.1L909.9 260c17 9.5 23 31 13.5 48-6.4 11.5-18.4 18-30.8 18z" fill="#307AF2" p-id="21790"></path>
</svg>