<?xml version="1.0" standalone="no"?>
<!DOCTYPE svg PUBLIC "-//W3C//DTD SVG 1.1//EN" "http://www.w3.org/Graphics/SVG/1.1/DTD/svg11.dtd">
<svg t="1689346320629" class="icon" viewBox="0 0 1024 1024" version="1.1" xmlns="http://www.w3.org/2000/svg" p-id="28432" xmlns:xlink="http://www.w3.org/1999/xlink" width="200" height="200">
<!--    <path d="M512 20.48c271.36 0 491.52 220.16 491.52 491.52S783.36 1003.52 512 1003.52 20.48 783.36 20.48 512 240.64 20.48 512 20.48m0-20.48C229.376 0 0 229.376 0 512s229.376 512 512 512 512-229.376 512-512S794.624 0 512 0z" fill="#555555" p-id="28433" data-spm-anchor-id="a313x.7781069.0.i26" class=""></path>-->
    <path d="M247.808 351.232l273.408-159.744 278.528 159.744v319.488L523.264 829.44V508.928z" fill="#307AF2" p-id="28434" data-spm-anchor-id="a313x.7781069.0.i21" class=""></path>
    <path d="M246.784 410.624v104.448l134.144 74.752V747.52l92.16 52.224V539.648z" fill="#12D2AC" p-id="28435" data-spm-anchor-id="a313x.7781069.0.i19" class=""></path>
    <path d="M246.784 573.44v96.256l84.992 49.152v-97.28z" fill="#307AF2" p-id="28436" data-spm-anchor-id="a313x.7781069.0.i20" class=""></path>
</svg>