<?xml version="1.0" standalone="no"?>
<!DOCTYPE svg PUBLIC "-//W3C//DTD SVG 1.1//EN" "http://www.w3.org/Graphics/SVG/1.1/DTD/svg11.dtd">
<svg t="1689344745247" class="icon" viewBox="0 0 1024 1024" version="1.1" xmlns="http://www.w3.org/2000/svg" p-id="6960" xmlns:xlink="http://www.w3.org/1999/xlink" width="200" height="200">
    <path d="M496.872727 661.643636a46.545455 46.545455 0 0 1-46.545454-46.545454v-325.818182h-132.421818a46.545455 46.545455 0 0 0-42.589091 28.16l-81.454546 189.207273a25.6 25.6 0 0 1-23.272727 15.127272H102.167273a23.272727 23.272727 0 0 0-19.549091 9.774546L20.712727 639.767273a23.272727 23.272727 0 0 0-4.189091 8.843636 19.549091 19.549091 0 0 0 0 6.283636v95.185455a25.134545 25.134545 0 0 0 24.901819 25.367273h101.003636a25.6 25.6 0 0 1 23.272727 20.247272 73.541818 73.541818 0 0 0 142.894546 0 25.832727 25.832727 0 0 1 23.272727-20.247272h352.814545a25.134545 25.134545 0 0 1 23.272728 19.781818 74.705455 74.705455 0 0 0 71.68 56.32 63.767273 63.767273 0 0 0 11.636363 0 74.705455 74.705455 0 0 0 59.810909-54.923636 25.832727 25.832727 0 0 1 23.272728-20.247273l85.410909 1.629091a46.545455 46.545455 0 0 0 46.545454-46.545455v-69.818182h-512z" fill="#73B4FF" p-id="6961"></path>
    <path d="M962.327273 172.916364h-465.454546a46.545455 46.545455 0 0 0-46.545454 46.545454v69.818182h139.636363a46.545455 46.545455 0 0 1 46.545455 46.545455v325.818181h372.363636v-442.181818a46.545455 46.545455 0 0 0-46.545454-46.545454z" fill="#87D3FF" p-id="6962"></path>
    <path d="M496.872727 661.643636h139.636364v-325.818181a46.545455 46.545455 0 0 0-46.545455-46.545455h-139.636363v325.818182a46.545455 46.545455 0 0 0 46.545454 46.545454z" fill="#73B4FF" p-id="6963"></path>
    <path d="M496.872727 661.643636h139.636364v-325.818181a46.545455 46.545455 0 0 0-46.545455-46.545455h-139.636363v325.818182a46.545455 46.545455 0 0 0 46.545454 46.545454z" fill="#1474E4" p-id="6964"></path>
</svg>