<?xml version="1.0" standalone="no"?>
<!DOCTYPE svg PUBLIC "-//W3C//DTD SVG 1.1//EN" "http://www.w3.org/Graphics/SVG/1.1/DTD/svg11.dtd">
<svg t="1689344822644" class="icon" viewBox="0 0 1024 1024" version="1.1" xmlns="http://www.w3.org/2000/svg" p-id="10264" xmlns:xlink="http://www.w3.org/1999/xlink" width="200" height="200">
    <path d="M55.296 851.008v-256.32c0-15.2 5.792-29.888 16.32-40.96l120.896-128.832a120 120 0 0 1 87.488-37.888h105.984c11.008 0 20 8.96 20 20v444a20.064 20.064 0 0 1-20 20h-40.576a20.032 20.032 0 0 1-19.84-17.216 115.008 115.008 0 0 0-227.36 0 20.096 20.096 0 0 1-19.84 17.216h-3.072a20.064 20.064 0 0 1-20-20z m280.704-229.024v-144a20 20 0 0 0-20-19.968h-7.904c-32.096 0-62.784 12.8-85.312 35.584l-85.888 86.72c-7.392 7.36-11.584 17.6-11.584 28.064v13.6c0 11.008 8.96 20 20 20h170.688a20.064 20.064 0 0 0 20-20zM467.296 831.008V256.96c0-22.08 17.92-40 40-40h420.608c22.08 0 40 17.92 40 40v577.024c0 20.384-16.608 36.992-37.024 36.992a115.008 115.008 0 0 0-228.672-17.216 20.096 20.096 0 0 1-19.84 17.216h-175.072c-22.08 0-40-17.92-40-40z" fill="#307AF2" p-id="10265"></path>
    <path d="M132 878.496a80 80 0 0 1 81.504-81.472 80.32 80.32 0 0 1 78.496 78.496 80 80 0 0 1-81.504 81.504 80.32 80.32 0 0 1-78.496-78.528zM736 878.496a80 80 0 0 1 81.504-81.472A80.32 80.32 0 0 1 896 875.52a80 80 0 0 1-81.504 81.504A80.32 80.32 0 0 1 736 878.496z" fill="#12D2AC" p-id="10266"></path>
</svg>