<?xml version="1.0" standalone="no"?>
<!DOCTYPE svg PUBLIC "-//W3C//DTD SVG 1.1//EN" "http://www.w3.org/Graphics/SVG/1.1/DTD/svg11.dtd">
<svg t="1689344485712" class="icon" viewBox="0 0 1024 1024" version="1.1" xmlns="http://www.w3.org/2000/svg" p-id="1699" xmlns:xlink="http://www.w3.org/1999/xlink" width="200" height="200">
    <path d="M1009.152 398.848l-102.4-102.4A51.2 51.2 0 0 0 870.4 281.6h-102.4v-153.6a51.2 51.2 0 0 0-51.2-51.2H51.2a51.2 51.2 0 0 0 0 102.4h614.4v470.016a153.6 153.6 0 0 0-62.464 41.984H369.664a153.6 153.6 0 0 0-227.328 0H51.2a51.2 51.2 0 0 0 0 102.4h51.2a153.6 153.6 0 0 0 307.2 0h153.6a153.6 153.6 0 0 0 307.2 0h102.4a51.2 51.2 0 0 0 51.2-51.2v-307.2a51.2 51.2 0 0 0-14.848-36.352zM256 844.8a51.2 51.2 0 1 1 51.2-51.2 51.2 51.2 0 0 1-51.2 51.2z m460.8 0a51.2 51.2 0 1 1 51.2-51.2 51.2 51.2 0 0 1-51.2 51.2z m204.8-153.6h-91.136a153.6 153.6 0 0 0-62.464-41.984V384h81.408L921.6 456.192z" fill="#307AF2" p-id="1700"></path>
    <path d="M51.2 384h256a51.2 51.2 0 0 0 0-102.4H51.2a51.2 51.2 0 0 0 0 102.4zM51.2 486.4a51.2 51.2 0 0 0 0 102.4h153.6a51.2 51.2 0 0 0 0-102.4z" fill="#12D2AC" p-id="1701"></path>
</svg>