<?xml version="1.0" standalone="no"?><!DOCTYPE svg PUBLIC "-//W3C//DTD SVG 1.1//EN" "http://www.w3.org/Graphics/SVG/1.1/DTD/svg11.dtd"><svg t="1689346526638" class="icon" viewBox="0 0 1133 1024" version="1.1" xmlns="http://www.w3.org/2000/svg" p-id="1265" xmlns:xlink="http://www.w3.org/1999/xlink" width="221.2890625" height="200"><path d="M179.218066 751.559633V590.407904c0-2.16796 0-21.679605 13.007763-43.35921 11.562456-18.788991 34.687368-36.855328 71.542696-41.191249l5.058575-29.628793c0-2.16796 0.722653-10.839802 3.613267-22.402258 3.613267-12.285109 9.394495-28.90614 23.124912-41.191249 9.394495-8.671842 22.402258-14.45307 38.300635-15.175724h145.253352s10.117149 0.722653 17.343684 7.226535c7.226535 7.226535 7.226535 22.402258 7.226535 22.402259v311.463655h-43.35921V434.314749H334.588567c-5.781228 0-9.394495 2.16796-13.007762 4.335921-3.613267 2.890614-6.503881 6.503881-8.671842 11.562456-5.058574 9.394495-7.226535 22.402258-7.226535 26.73818V479.119266l-7.226535 63.593507h-17.343684c-34.687368 0.722653-47.695131 11.562456-55.644319 22.402259-7.949188 10.839802-9.394495 23.847565-9.394496 26.015526V751.559633h-36.855328z" fill="#666666" p-id="1266" data-spm-anchor-id="a313x.7781069.0.i10" class=""></path><path d="M429.256175 567.282992c0 3.613267-2.890614 6.503881-6.503881 6.503882h-71.542696c-3.613267 0-6.503881-2.890614-6.503882-6.503882l5.781228-94.667607c0-3.613267 2.890614-6.503881 6.503882-6.503882h65.761468c3.613267 0 6.503881 2.890614 6.503881 6.503882v94.667607zM927.887085 734.215949H172.714185c-13.007763 0-9.394495 15.898377-9.394496 35.410021s-3.613267 35.410021 9.394496 35.410022h121.405787c12.285109-29.628793 41.191249-50.585745 75.155963-50.585745s63.593507 20.956951 75.155963 50.585745h315.076923c12.285109-29.628793 41.191249-50.585745 75.155964-50.585745s63.593507 20.956951 75.155963 50.585745h16.62103c13.007763 0 14.45307-15.898377 14.45307-35.410022 0.722653-19.511644 0-35.410021-13.007763-35.410021z" fill="#666666" p-id="1267"></path><path d="M667.731828 369.998589h-36.132675s-89.609033-5.781228-97.558221-25.292873c-7.949188-19.511644 34.687368-49.863091 55.644319-37.577981 21.679605 12.285109 78.046577 62.870854 78.046577 62.870854zM674.235709 369.998589h38.300635s0.722653-112.733945-18.066337-122.851094c-18.066337-10.117149-98.280875 0.722653-91.776994 28.183486 7.226535 26.738179 71.542696 94.667608 71.542696 94.667608zM768.180663 369.998589h36.132675s89.609033-5.781228 97.558222-25.292873c7.949188-19.511644-34.687368-49.863091-55.644319-37.577981-21.679605 12.285109-78.046577 62.870854-78.046578 62.870854zM761.676782 369.998589h-38.300635s0-112.733945 18.066337-122.128441c18.066337-10.117149 98.280875 0.722653 91.776994 28.183486-7.226535 26.738179-71.542696 93.944954-71.542696 93.944955z" fill="#12D2AC" p-id="1268" data-spm-anchor-id="a313x.7781069.0.i15" class=""></path><path d="M518.865208 568.005646v126.464361c0 15.175723 12.285109 26.738179 27.460833 26.738179h161.151729V568.005646H518.865208zM707.47777 393.1235H545.603387c-15.175723 0-27.460833 12.285109-27.460832 27.460833v126.464361h188.612561V393.1235zM917.047283 547.048694V420.584333c0-15.175723-12.285109-27.460833-26.738179-27.460833h-161.151729v153.202541h187.889908zM728.434721 721.93084h161.151729c15.175723 0 26.738179-12.285109 26.738179-26.738179V568.005646h-188.612561v153.925194z" fill="#307AF2" p-id="1269" data-spm-anchor-id="a313x.7781069.0.i12" class=""></path><path d="M430.701482 838.278052c0 33.964714-27.460833 62.1482-62.1482 62.148201-33.964714 0-62.1482-27.460833-62.148201-62.148201 0-33.964714 27.460833-62.1482 62.148201-62.1482s62.1482 27.460833 62.1482 62.1482zM898.258292 838.278052c0 33.964714-27.460833 62.1482-62.1482 62.148201-33.964714 0-62.1482-27.460833-62.148201-62.148201 0-33.964714 27.460833-62.1482 62.148201-62.1482 33.964714 0 62.1482 27.460833 62.1482 62.1482z" fill="#666666" p-id="1270"></path></svg>